<svg xmlns="http://www.w3.org/2000/svg" width="750" viewBox="0 0 750 168.75" height="168.75" version="1.0"><defs><clipPath id="a"><path d="M 594 111 L 597 111 L 597 114 L 594 114 Z M 594 111"/></clipPath><clipPath id="b"><path d="M 542.519531 53.585938 L 647.253906 10.941406 L 678.320312 87.238281 L 573.585938 129.882812 Z M 542.519531 53.585938"/></clipPath><clipPath id="c"><path d="M 542.519531 53.585938 L 647.253906 10.941406 L 678.320312 87.238281 L 573.585938 129.882812 Z M 542.519531 53.585938"/></clipPath><clipPath id="d"><path d="M 598 90 L 601 90 L 601 93 L 598 93 Z M 598 90"/></clipPath><clipPath id="e"><path d="M 542.519531 53.585938 L 647.253906 10.941406 L 678.320312 87.238281 L 573.585938 129.882812 Z M 542.519531 53.585938"/></clipPath><clipPath id="f"><path d="M 542.519531 53.585938 L 647.253906 10.941406 L 678.320312 87.238281 L 573.585938 129.882812 Z M 542.519531 53.585938"/></clipPath><clipPath id="g"><path d="M 597 70 L 600 70 L 600 73 L 597 73 Z M 597 70"/></clipPath><clipPath id="h"><path d="M 542.519531 53.585938 L 647.253906 10.941406 L 678.320312 87.238281 L 573.585938 129.882812 Z M 542.519531 53.585938"/></clipPath><clipPath id="i"><path d="M 542.519531 53.585938 L 647.253906 10.941406 L 678.320312 87.238281 L 573.585938 129.882812 Z M 542.519531 53.585938"/></clipPath><clipPath id="j"><path d="M 628 61 L 631 61 L 631 64 L 628 64 Z M 628 61"/></clipPath><clipPath id="k"><path d="M 542.519531 53.585938 L 647.253906 10.941406 L 678.320312 87.238281 L 573.585938 129.882812 Z M 542.519531 53.585938"/></clipPath><clipPath id="l"><path d="M 542.519531 53.585938 L 647.253906 10.941406 L 678.320312 87.238281 L 573.585938 129.882812 Z M 542.519531 53.585938"/></clipPath><clipPath id="m"><path d="M 620 83 L 622 83 L 622 86 L 620 86 Z M 620 83"/></clipPath><clipPath id="n"><path d="M 542.519531 53.585938 L 647.253906 10.941406 L 678.320312 87.238281 L 573.585938 129.882812 Z M 542.519531 53.585938"/></clipPath><clipPath id="o"><path d="M 542.519531 53.585938 L 647.253906 10.941406 L 678.320312 87.238281 L 573.585938 129.882812 Z M 542.519531 53.585938"/></clipPath><clipPath id="p"><path d="M 599 109 L 602 109 L 602 112 L 599 112 Z M 599 109"/></clipPath><clipPath id="q"><path d="M 542.519531 53.585938 L 647.253906 10.941406 L 678.320312 87.238281 L 573.585938 129.882812 Z M 542.519531 53.585938"/></clipPath><clipPath id="r"><path d="M 542.519531 53.585938 L 647.253906 10.941406 L 678.320312 87.238281 L 573.585938 129.882812 Z M 542.519531 53.585938"/></clipPath><clipPath id="s"><path d="M 604 107 L 606 107 L 606 110 L 604 110 Z M 604 107"/></clipPath><clipPath id="t"><path d="M 542.519531 53.585938 L 647.253906 10.941406 L 678.320312 87.238281 L 573.585938 129.882812 Z M 542.519531 53.585938"/></clipPath><clipPath id="u"><path d="M 542.519531 53.585938 L 647.253906 10.941406 L 678.320312 87.238281 L 573.585938 129.882812 Z M 542.519531 53.585938"/></clipPath><clipPath id="v"><path d="M 609 105 L 611 105 L 611 108 L 609 108 Z M 609 105"/></clipPath><clipPath id="w"><path d="M 542.519531 53.585938 L 647.253906 10.941406 L 678.320312 87.238281 L 573.585938 129.882812 Z M 542.519531 53.585938"/></clipPath><clipPath id="x"><path d="M 542.519531 53.585938 L 647.253906 10.941406 L 678.320312 87.238281 L 573.585938 129.882812 Z M 542.519531 53.585938"/></clipPath><clipPath id="y"><path d="M 613 103 L 616 103 L 616 106 L 613 106 Z M 613 103"/></clipPath><clipPath id="z"><path d="M 542.519531 53.585938 L 647.253906 10.941406 L 678.320312 87.238281 L 573.585938 129.882812 Z M 542.519531 53.585938"/></clipPath><clipPath id="A"><path d="M 542.519531 53.585938 L 647.253906 10.941406 L 678.320312 87.238281 L 573.585938 129.882812 Z M 542.519531 53.585938"/></clipPath><clipPath id="B"><path d="M 618 101 L 621 101 L 621 104 L 618 104 Z M 618 101"/></clipPath><clipPath id="C"><path d="M 542.519531 53.585938 L 647.253906 10.941406 L 678.320312 87.238281 L 573.585938 129.882812 Z M 542.519531 53.585938"/></clipPath><clipPath id="D"><path d="M 542.519531 53.585938 L 647.253906 10.941406 L 678.320312 87.238281 L 573.585938 129.882812 Z M 542.519531 53.585938"/></clipPath><clipPath id="E"><path d="M 623 99 L 626 99 L 626 102 L 623 102 Z M 623 99"/></clipPath><clipPath id="F"><path d="M 542.519531 53.585938 L 647.253906 10.941406 L 678.320312 87.238281 L 573.585938 129.882812 Z M 542.519531 53.585938"/></clipPath><clipPath id="G"><path d="M 542.519531 53.585938 L 647.253906 10.941406 L 678.320312 87.238281 L 573.585938 129.882812 Z M 542.519531 53.585938"/></clipPath><clipPath id="H"><path d="M 628 97 L 631 97 L 631 100 L 628 100 Z M 628 97"/></clipPath><clipPath id="I"><path d="M 542.519531 53.585938 L 647.253906 10.941406 L 678.320312 87.238281 L 573.585938 129.882812 Z M 542.519531 53.585938"/></clipPath><clipPath id="J"><path d="M 542.519531 53.585938 L 647.253906 10.941406 L 678.320312 87.238281 L 573.585938 129.882812 Z M 542.519531 53.585938"/></clipPath><clipPath id="K"><path d="M 633 95 L 636 95 L 636 98 L 633 98 Z M 633 95"/></clipPath><clipPath id="L"><path d="M 542.519531 53.585938 L 647.253906 10.941406 L 678.320312 87.238281 L 573.585938 129.882812 Z M 542.519531 53.585938"/></clipPath><clipPath id="M"><path d="M 542.519531 53.585938 L 647.253906 10.941406 L 678.320312 87.238281 L 573.585938 129.882812 Z M 542.519531 53.585938"/></clipPath><clipPath id="N"><path d="M 556 80 L 562 80 L 562 89 L 556 89 Z M 556 80"/></clipPath><clipPath id="O"><path d="M 542.519531 53.585938 L 647.253906 10.941406 L 678.320312 87.238281 L 573.585938 129.882812 Z M 542.519531 53.585938"/></clipPath><clipPath id="P"><path d="M 542.519531 53.585938 L 647.253906 10.941406 L 678.320312 87.238281 L 573.585938 129.882812 Z M 542.519531 53.585938"/></clipPath><clipPath id="Q"><path d="M 652 41 L 662 41 L 662 47 L 652 47 Z M 652 41"/></clipPath><clipPath id="R"><path d="M 542.519531 53.585938 L 647.253906 10.941406 L 678.320312 87.238281 L 573.585938 129.882812 Z M 542.519531 53.585938"/></clipPath><clipPath id="S"><path d="M 542.519531 53.585938 L 647.253906 10.941406 L 678.320312 87.238281 L 573.585938 129.882812 Z M 542.519531 53.585938"/></clipPath><clipPath id="T"><path d="M 671 80 L 677 80 L 677 90 L 671 90 Z M 671 80"/></clipPath><clipPath id="U"><path d="M 542.519531 53.585938 L 647.253906 10.941406 L 678.320312 87.238281 L 573.585938 129.882812 Z M 542.519531 53.585938"/></clipPath><clipPath id="V"><path d="M 542.519531 53.585938 L 647.253906 10.941406 L 678.320312 87.238281 L 573.585938 129.882812 Z M 542.519531 53.585938"/></clipPath><clipPath id="W"><path d="M 571 122 L 580 122 L 580 128 L 571 128 Z M 571 122"/></clipPath><clipPath id="X"><path d="M 542.519531 53.585938 L 647.253906 10.941406 L 678.320312 87.238281 L 573.585938 129.882812 Z M 542.519531 53.585938"/></clipPath><clipPath id="Y"><path d="M 542.519531 53.585938 L 647.253906 10.941406 L 678.320312 87.238281 L 573.585938 129.882812 Z M 542.519531 53.585938"/></clipPath><clipPath id="Z"><path d="M 561 99 L 571 99 L 571 105 L 561 105 Z M 561 99"/></clipPath><clipPath id="aa"><path d="M 542.519531 53.585938 L 647.253906 10.941406 L 678.320312 87.238281 L 573.585938 129.882812 Z M 542.519531 53.585938"/></clipPath><clipPath id="ab"><path d="M 542.519531 53.585938 L 647.253906 10.941406 L 678.320312 87.238281 L 573.585938 129.882812 Z M 542.519531 53.585938"/></clipPath><clipPath id="ac"><path d="M 565 102 L 572 102 L 572 112 L 565 112 Z M 565 102"/></clipPath><clipPath id="ad"><path d="M 542.519531 53.585938 L 647.253906 10.941406 L 678.320312 87.238281 L 573.585938 129.882812 Z M 542.519531 53.585938"/></clipPath><clipPath id="ae"><path d="M 542.519531 53.585938 L 647.253906 10.941406 L 678.320312 87.238281 L 573.585938 129.882812 Z M 542.519531 53.585938"/></clipPath><clipPath id="af"><path d="M 559 42 L 655 42 L 655 82 L 559 82 Z M 559 42"/></clipPath><clipPath id="ag"><path d="M 542.519531 53.585938 L 647.253906 10.941406 L 678.320312 87.238281 L 573.585938 129.882812 Z M 542.519531 53.585938"/></clipPath><clipPath id="ah"><path d="M 542.519531 53.585938 L 647.253906 10.941406 L 678.320312 87.238281 L 573.585938 129.882812 Z M 542.519531 53.585938"/></clipPath><clipPath id="ai"><path d="M 578 87 L 674 87 L 674 128 L 578 128 Z M 578 87"/></clipPath><clipPath id="aj"><path d="M 542.519531 53.585938 L 647.253906 10.941406 L 678.320312 87.238281 L 573.585938 129.882812 Z M 542.519531 53.585938"/></clipPath><clipPath id="ak"><path d="M 542.519531 53.585938 L 647.253906 10.941406 L 678.320312 87.238281 L 573.585938 129.882812 Z M 542.519531 53.585938"/></clipPath><clipPath id="al"><path d="M 556 86 L 564 86 L 564 102 L 556 102 Z M 556 86"/></clipPath><clipPath id="am"><path d="M 542.519531 53.585938 L 647.253906 10.941406 L 678.320312 87.238281 L 573.585938 129.882812 Z M 542.519531 53.585938"/></clipPath><clipPath id="an"><path d="M 542.519531 53.585938 L 647.253906 10.941406 L 678.320312 87.238281 L 573.585938 129.882812 Z M 542.519531 53.585938"/></clipPath><clipPath id="ao"><path d="M 565 109 L 574 109 L 574 125 L 565 125 Z M 565 109"/></clipPath><clipPath id="ap"><path d="M 542.519531 53.585938 L 647.253906 10.941406 L 678.320312 87.238281 L 573.585938 129.882812 Z M 542.519531 53.585938"/></clipPath><clipPath id="aq"><path d="M 542.519531 53.585938 L 647.253906 10.941406 L 678.320312 87.238281 L 573.585938 129.882812 Z M 542.519531 53.585938"/></clipPath><clipPath id="ar"><path d="M 661 64 L 671 64 L 671 71 L 661 71 Z M 661 64"/></clipPath><clipPath id="as"><path d="M 542.519531 53.585938 L 647.253906 10.941406 L 678.320312 87.238281 L 573.585938 129.882812 Z M 542.519531 53.585938"/></clipPath><clipPath id="at"><path d="M 542.519531 53.585938 L 647.253906 10.941406 L 678.320312 87.238281 L 573.585938 129.882812 Z M 542.519531 53.585938"/></clipPath><clipPath id="au"><path d="M 661 58 L 667 58 L 667 67 L 661 67 Z M 661 58"/></clipPath><clipPath id="av"><path d="M 542.519531 53.585938 L 647.253906 10.941406 L 678.320312 87.238281 L 573.585938 129.882812 Z M 542.519531 53.585938"/></clipPath><clipPath id="aw"><path d="M 542.519531 53.585938 L 647.253906 10.941406 L 678.320312 87.238281 L 573.585938 129.882812 Z M 542.519531 53.585938"/></clipPath><clipPath id="ax"><path d="M 668 67 L 676 67 L 676 83 L 668 83 Z M 668 67"/></clipPath><clipPath id="ay"><path d="M 542.519531 53.585938 L 647.253906 10.941406 L 678.320312 87.238281 L 573.585938 129.882812 Z M 542.519531 53.585938"/></clipPath><clipPath id="az"><path d="M 542.519531 53.585938 L 647.253906 10.941406 L 678.320312 87.238281 L 573.585938 129.882812 Z M 542.519531 53.585938"/></clipPath><clipPath id="aA"><path d="M 659 45 L 667 45 L 667 60 L 659 60 Z M 659 45"/></clipPath><clipPath id="aB"><path d="M 542.519531 53.585938 L 647.253906 10.941406 L 678.320312 87.238281 L 573.585938 129.882812 Z M 542.519531 53.585938"/></clipPath><clipPath id="aC"><path d="M 542.519531 53.585938 L 647.253906 10.941406 L 678.320312 87.238281 L 573.585938 129.882812 Z M 542.519531 53.585938"/></clipPath><clipPath id="aD"><path d="M 637 52 L 641 52 L 641 57 L 637 57 Z M 637 52"/></clipPath><clipPath id="aE"><path d="M 542.519531 53.585938 L 647.253906 10.941406 L 678.320312 87.238281 L 573.585938 129.882812 Z M 542.519531 53.585938"/></clipPath><clipPath id="aF"><path d="M 542.519531 53.585938 L 647.253906 10.941406 L 678.320312 87.238281 L 573.585938 129.882812 Z M 542.519531 53.585938"/></clipPath><clipPath id="aG"><path d="M 640 59 L 653 59 L 653 86 L 640 86 Z M 640 59"/></clipPath><clipPath id="aH"><path d="M 542.519531 53.585938 L 647.253906 10.941406 L 678.320312 87.238281 L 573.585938 129.882812 Z M 542.519531 53.585938"/></clipPath><clipPath id="aI"><path d="M 542.519531 53.585938 L 647.253906 10.941406 L 678.320312 87.238281 L 573.585938 129.882812 Z M 542.519531 53.585938"/></clipPath><clipPath id="aJ"><path d="M 652 88 L 656 88 L 656 94 L 652 94 Z M 652 88"/></clipPath><clipPath id="aK"><path d="M 542.519531 53.585938 L 647.253906 10.941406 L 678.320312 87.238281 L 573.585938 129.882812 Z M 542.519531 53.585938"/></clipPath><clipPath id="aL"><path d="M 542.519531 53.585938 L 647.253906 10.941406 L 678.320312 87.238281 L 573.585938 129.882812 Z M 542.519531 53.585938"/></clipPath><clipPath id="aM"><path d="M 644 50 L 662 50 L 662 89 L 644 89 Z M 644 50"/></clipPath><clipPath id="aN"><path d="M 542.519531 53.585938 L 647.253906 10.941406 L 678.320312 87.238281 L 573.585938 129.882812 Z M 542.519531 53.585938"/></clipPath><clipPath id="aO"><path d="M 542.519531 53.585938 L 647.253906 10.941406 L 678.320312 87.238281 L 573.585938 129.882812 Z M 542.519531 53.585938"/></clipPath><clipPath id="aP"><path d="M 651 57 L 662 57 L 662 80 L 651 80 Z M 651 57"/></clipPath><clipPath id="aQ"><path d="M 542.519531 53.585938 L 647.253906 10.941406 L 678.320312 87.238281 L 573.585938 129.882812 Z M 542.519531 53.585938"/></clipPath><clipPath id="aR"><path d="M 542.519531 53.585938 L 647.253906 10.941406 L 678.320312 87.238281 L 573.585938 129.882812 Z M 542.519531 53.585938"/></clipPath><clipPath id="aS"><path d="M 581 82 L 588 82 L 588 95 L 581 95 Z M 581 82"/></clipPath><clipPath id="aT"><path d="M 542.519531 53.585938 L 647.253906 10.941406 L 678.320312 87.238281 L 573.585938 129.882812 Z M 542.519531 53.585938"/></clipPath><clipPath id="aU"><path d="M 542.519531 53.585938 L 647.253906 10.941406 L 678.320312 87.238281 L 573.585938 129.882812 Z M 542.519531 53.585938"/></clipPath><clipPath id="aV"><path d="M 578 81 L 587 81 L 587 86 L 578 86 Z M 578 81"/></clipPath><clipPath id="aW"><path d="M 542.519531 53.585938 L 647.253906 10.941406 L 678.320312 87.238281 L 573.585938 129.882812 Z M 542.519531 53.585938"/></clipPath><clipPath id="aX"><path d="M 542.519531 53.585938 L 647.253906 10.941406 L 678.320312 87.238281 L 573.585938 129.882812 Z M 542.519531 53.585938"/></clipPath><clipPath id="aY"><path d="M 621 66 L 628 66 L 628 78 L 621 78 Z M 621 66"/></clipPath><clipPath id="aZ"><path d="M 542.519531 53.585938 L 647.253906 10.941406 L 678.320312 87.238281 L 573.585938 129.882812 Z M 542.519531 53.585938"/></clipPath><clipPath id="ba"><path d="M 542.519531 53.585938 L 647.253906 10.941406 L 678.320312 87.238281 L 573.585938 129.882812 Z M 542.519531 53.585938"/></clipPath><clipPath id="bb"><path d="M 618 64 L 627 64 L 627 70 L 618 70 Z M 618 64"/></clipPath><clipPath id="bc"><path d="M 542.519531 53.585938 L 647.253906 10.941406 L 678.320312 87.238281 L 573.585938 129.882812 Z M 542.519531 53.585938"/></clipPath><clipPath id="bd"><path d="M 542.519531 53.585938 L 647.253906 10.941406 L 678.320312 87.238281 L 573.585938 129.882812 Z M 542.519531 53.585938"/></clipPath><clipPath id="be"><path d="M 588 79 L 594 79 L 594 92 L 588 92 Z M 588 79"/></clipPath><clipPath id="bf"><path d="M 542.519531 53.585938 L 647.253906 10.941406 L 678.320312 87.238281 L 573.585938 129.882812 Z M 542.519531 53.585938"/></clipPath><clipPath id="bg"><path d="M 542.519531 53.585938 L 647.253906 10.941406 L 678.320312 87.238281 L 573.585938 129.882812 Z M 542.519531 53.585938"/></clipPath><clipPath id="bh"><path d="M 601 74 L 608 74 L 608 86 L 601 86 Z M 601 74"/></clipPath><clipPath id="bi"><path d="M 542.519531 53.585938 L 647.253906 10.941406 L 678.320312 87.238281 L 573.585938 129.882812 Z M 542.519531 53.585938"/></clipPath><clipPath id="bj"><path d="M 542.519531 53.585938 L 647.253906 10.941406 L 678.320312 87.238281 L 573.585938 129.882812 Z M 542.519531 53.585938"/></clipPath><clipPath id="bk"><path d="M 604 72 L 609 72 L 609 83 L 604 83 Z M 604 72"/></clipPath><clipPath id="bl"><path d="M 542.519531 53.585938 L 647.253906 10.941406 L 678.320312 87.238281 L 573.585938 129.882812 Z M 542.519531 53.585938"/></clipPath><clipPath id="bm"><path d="M 542.519531 53.585938 L 647.253906 10.941406 L 678.320312 87.238281 L 573.585938 129.882812 Z M 542.519531 53.585938"/></clipPath><clipPath id="bn"><path d="M 605 77 L 613 77 L 613 84 L 605 84 Z M 605 77"/></clipPath><clipPath id="bo"><path d="M 542.519531 53.585938 L 647.253906 10.941406 L 678.320312 87.238281 L 573.585938 129.882812 Z M 542.519531 53.585938"/></clipPath><clipPath id="bp"><path d="M 542.519531 53.585938 L 647.253906 10.941406 L 678.320312 87.238281 L 573.585938 129.882812 Z M 542.519531 53.585938"/></clipPath><clipPath id="bq"><path d="M 593 76 L 601 76 L 601 83 L 593 83 Z M 593 76"/></clipPath><clipPath id="br"><path d="M 542.519531 53.585938 L 647.253906 10.941406 L 678.320312 87.238281 L 573.585938 129.882812 Z M 542.519531 53.585938"/></clipPath><clipPath id="bs"><path d="M 542.519531 53.585938 L 647.253906 10.941406 L 678.320312 87.238281 L 573.585938 129.882812 Z M 542.519531 53.585938"/></clipPath><clipPath id="bt"><path d="M 595 83 L 603 83 L 603 89 L 595 89 Z M 595 83"/></clipPath><clipPath id="bu"><path d="M 542.519531 53.585938 L 647.253906 10.941406 L 678.320312 87.238281 L 573.585938 129.882812 Z M 542.519531 53.585938"/></clipPath><clipPath id="bv"><path d="M 542.519531 53.585938 L 647.253906 10.941406 L 678.320312 87.238281 L 573.585938 129.882812 Z M 542.519531 53.585938"/></clipPath><clipPath id="bw"><path d="M 593 80 L 598 80 L 598 87 L 593 87 Z M 593 80"/></clipPath><clipPath id="bx"><path d="M 542.519531 53.585938 L 647.253906 10.941406 L 678.320312 87.238281 L 573.585938 129.882812 Z M 542.519531 53.585938"/></clipPath><clipPath id="by"><path d="M 542.519531 53.585938 L 647.253906 10.941406 L 678.320312 87.238281 L 573.585938 129.882812 Z M 542.519531 53.585938"/></clipPath><clipPath id="bz"><path d="M 610 70 L 617 70 L 617 83 L 610 83 Z M 610 70"/></clipPath><clipPath id="bA"><path d="M 542.519531 53.585938 L 647.253906 10.941406 L 678.320312 87.238281 L 573.585938 129.882812 Z M 542.519531 53.585938"/></clipPath><clipPath id="bB"><path d="M 542.519531 53.585938 L 647.253906 10.941406 L 678.320312 87.238281 L 573.585938 129.882812 Z M 542.519531 53.585938"/></clipPath><clipPath id="bC"><path d="M 614 78 L 622 78 L 622 83 L 614 83 Z M 614 78"/></clipPath><clipPath id="bD"><path d="M 542.519531 53.585938 L 647.253906 10.941406 L 678.320312 87.238281 L 573.585938 129.882812 Z M 542.519531 53.585938"/></clipPath><clipPath id="bE"><path d="M 542.519531 53.585938 L 647.253906 10.941406 L 678.320312 87.238281 L 573.585938 129.882812 Z M 542.519531 53.585938"/></clipPath><clipPath id="bF"><path d="M 610 68 L 618 68 L 618 73 L 610 73 Z M 610 68"/></clipPath><clipPath id="bG"><path d="M 542.519531 53.585938 L 647.253906 10.941406 L 678.320312 87.238281 L 573.585938 129.882812 Z M 542.519531 53.585938"/></clipPath><clipPath id="bH"><path d="M 542.519531 53.585938 L 647.253906 10.941406 L 678.320312 87.238281 L 573.585938 129.882812 Z M 542.519531 53.585938"/></clipPath><clipPath id="bI"><path d="M 612 74 L 618 74 L 618 78 L 612 78 Z M 612 74"/></clipPath><clipPath id="bJ"><path d="M 542.519531 53.585938 L 647.253906 10.941406 L 678.320312 87.238281 L 573.585938 129.882812 Z M 542.519531 53.585938"/></clipPath><clipPath id="bK"><path d="M 542.519531 53.585938 L 647.253906 10.941406 L 678.320312 87.238281 L 573.585938 129.882812 Z M 542.519531 53.585938"/></clipPath><clipPath id="bL"><path d="M 589 85 L 633 85 L 633 104 L 589 104 Z M 589 85"/></clipPath><clipPath id="bM"><path d="M 542.519531 53.585938 L 647.253906 10.941406 L 678.320312 87.238281 L 573.585938 129.882812 Z M 542.519531 53.585938"/></clipPath><clipPath id="bN"><path d="M 542.519531 53.585938 L 647.253906 10.941406 L 678.320312 87.238281 L 573.585938 129.882812 Z M 542.519531 53.585938"/></clipPath><clipPath id="bO"><path d="M 602 93 L 622 93 L 622 103 L 602 103 Z M 602 93"/></clipPath><clipPath id="bP"><path d="M 542.519531 53.585938 L 647.253906 10.941406 L 678.320312 87.238281 L 573.585938 129.882812 Z M 542.519531 53.585938"/></clipPath><clipPath id="bQ"><path d="M 542.519531 53.585938 L 647.253906 10.941406 L 678.320312 87.238281 L 573.585938 129.882812 Z M 542.519531 53.585938"/></clipPath><clipPath id="bR"><path d="M 632 71 L 636 71 L 636 77 L 632 77 Z M 632 71"/></clipPath><clipPath id="bS"><path d="M 542.519531 53.585938 L 647.253906 10.941406 L 678.320312 87.238281 L 573.585938 129.882812 Z M 542.519531 53.585938"/></clipPath><clipPath id="bT"><path d="M 542.519531 53.585938 L 647.253906 10.941406 L 678.320312 87.238281 L 573.585938 129.882812 Z M 542.519531 53.585938"/></clipPath><clipPath id="bU"><path d="M 631 72 L 637 72 L 637 76 L 631 76 Z M 631 72"/></clipPath><clipPath id="bV"><path d="M 542.519531 53.585938 L 647.253906 10.941406 L 678.320312 87.238281 L 573.585938 129.882812 Z M 542.519531 53.585938"/></clipPath><clipPath id="bW"><path d="M 542.519531 53.585938 L 647.253906 10.941406 L 678.320312 87.238281 L 573.585938 129.882812 Z M 542.519531 53.585938"/></clipPath><clipPath id="bX"><path d="M 571 86 L 575 86 L 575 92 L 571 92 Z M 571 86"/></clipPath><clipPath id="bY"><path d="M 542.519531 53.585938 L 647.253906 10.941406 L 678.320312 87.238281 L 573.585938 129.882812 Z M 542.519531 53.585938"/></clipPath><clipPath id="bZ"><path d="M 542.519531 53.585938 L 647.253906 10.941406 L 678.320312 87.238281 L 573.585938 129.882812 Z M 542.519531 53.585938"/></clipPath><clipPath id="ca"><path d="M 570 87 L 576 87 L 576 91 L 570 91 Z M 570 87"/></clipPath><clipPath id="cb"><path d="M 542.519531 53.585938 L 647.253906 10.941406 L 678.320312 87.238281 L 573.585938 129.882812 Z M 542.519531 53.585938"/></clipPath><clipPath id="cc"><path d="M 542.519531 53.585938 L 647.253906 10.941406 L 678.320312 87.238281 L 573.585938 129.882812 Z M 542.519531 53.585938"/></clipPath><clipPath id="cd"><path d="M 612 46 L 615 46 L 615 49 L 612 49 Z M 612 46"/></clipPath><clipPath id="ce"><path d="M 542.519531 53.585938 L 647.253906 10.941406 L 678.320312 87.238281 L 573.585938 129.882812 Z M 542.519531 53.585938"/></clipPath><clipPath id="cf"><path d="M 542.519531 53.585938 L 647.253906 10.941406 L 678.320312 87.238281 L 573.585938 129.882812 Z M 542.519531 53.585938"/></clipPath><clipPath id="cg"><path d="M 628 18 L 638 18 L 638 22 L 628 22 Z M 628 18"/></clipPath><clipPath id="ch"><path d="M 542.519531 53.585938 L 647.253906 10.941406 L 678.320312 87.238281 L 573.585938 129.882812 Z M 542.519531 53.585938"/></clipPath><clipPath id="ci"><path d="M 542.519531 53.585938 L 647.253906 10.941406 L 678.320312 87.238281 L 573.585938 129.882812 Z M 542.519531 53.585938"/></clipPath><clipPath id="cj"><path d="M 574 19 L 631 19 L 631 72 L 574 72 Z M 574 19"/></clipPath><clipPath id="ck"><path d="M 542.519531 53.585938 L 647.253906 10.941406 L 678.320312 87.238281 L 573.585938 129.882812 Z M 542.519531 53.585938"/></clipPath><clipPath id="cl"><path d="M 542.519531 53.585938 L 647.253906 10.941406 L 678.320312 87.238281 L 573.585938 129.882812 Z M 542.519531 53.585938"/></clipPath><clipPath id="cm"><path d="M 645 37 L 655 37 L 655 42 L 645 42 Z M 645 37"/></clipPath><clipPath id="cn"><path d="M 542.519531 53.585938 L 647.253906 10.941406 L 678.320312 87.238281 L 573.585938 129.882812 Z M 542.519531 53.585938"/></clipPath><clipPath id="co"><path d="M 542.519531 53.585938 L 647.253906 10.941406 L 678.320312 87.238281 L 573.585938 129.882812 Z M 542.519531 53.585938"/></clipPath><clipPath id="cp"><path d="M 643 30 L 648 30 L 648 40 L 643 40 Z M 643 30"/></clipPath><clipPath id="cq"><path d="M 542.519531 53.585938 L 647.253906 10.941406 L 678.320312 87.238281 L 573.585938 129.882812 Z M 542.519531 53.585938"/></clipPath><clipPath id="cr"><path d="M 542.519531 53.585938 L 647.253906 10.941406 L 678.320312 87.238281 L 573.585938 129.882812 Z M 542.519531 53.585938"/></clipPath><clipPath id="cs"><path d="M 635 19 L 648 19 L 648 32 L 635 32 Z M 635 19"/></clipPath><clipPath id="ct"><path d="M 542.519531 53.585938 L 647.253906 10.941406 L 678.320312 87.238281 L 573.585938 129.882812 Z M 542.519531 53.585938"/></clipPath><clipPath id="cu"><path d="M 542.519531 53.585938 L 647.253906 10.941406 L 678.320312 87.238281 L 573.585938 129.882812 Z M 542.519531 53.585938"/></clipPath><clipPath id="cv"><path d="M 617 34 L 622 34 L 622 38 L 617 38 Z M 617 34"/></clipPath><clipPath id="cw"><path d="M 542.519531 53.585938 L 647.253906 10.941406 L 678.320312 87.238281 L 573.585938 129.882812 Z M 542.519531 53.585938"/></clipPath><clipPath id="cx"><path d="M 542.519531 53.585938 L 647.253906 10.941406 L 678.320312 87.238281 L 573.585938 129.882812 Z M 542.519531 53.585938"/></clipPath><clipPath id="cy"><path d="M 622 39 L 628 39 L 628 45 L 622 45 Z M 622 39"/></clipPath><clipPath id="cz"><path d="M 542.519531 53.585938 L 647.253906 10.941406 L 678.320312 87.238281 L 573.585938 129.882812 Z M 542.519531 53.585938"/></clipPath><clipPath id="cA"><path d="M 542.519531 53.585938 L 647.253906 10.941406 L 678.320312 87.238281 L 573.585938 129.882812 Z M 542.519531 53.585938"/></clipPath><clipPath id="cB"><path d="M 628 45 L 632 45 L 632 50 L 628 50 Z M 628 45"/></clipPath><clipPath id="cC"><path d="M 542.519531 53.585938 L 647.253906 10.941406 L 678.320312 87.238281 L 573.585938 129.882812 Z M 542.519531 53.585938"/></clipPath><clipPath id="cD"><path d="M 542.519531 53.585938 L 647.253906 10.941406 L 678.320312 87.238281 L 573.585938 129.882812 Z M 542.519531 53.585938"/></clipPath><clipPath id="cE"><path d="M 624 30 L 639 30 L 639 47 L 624 47 Z M 624 30"/></clipPath><clipPath id="cF"><path d="M 542.519531 53.585938 L 647.253906 10.941406 L 678.320312 87.238281 L 573.585938 129.882812 Z M 542.519531 53.585938"/></clipPath><clipPath id="cG"><path d="M 542.519531 53.585938 L 647.253906 10.941406 L 678.320312 87.238281 L 573.585938 129.882812 Z M 542.519531 53.585938"/></clipPath><clipPath id="cH"><path d="M 632 34 L 643 34 L 643 45 L 632 45 Z M 632 34"/></clipPath><clipPath id="cI"><path d="M 542.519531 53.585938 L 647.253906 10.941406 L 678.320312 87.238281 L 573.585938 129.882812 Z M 542.519531 53.585938"/></clipPath><clipPath id="cJ"><path d="M 542.519531 53.585938 L 647.253906 10.941406 L 678.320312 87.238281 L 573.585938 129.882812 Z M 542.519531 53.585938"/></clipPath><clipPath id="cK"><path d="M 607 53 L 612 53 L 612 58 L 607 58 Z M 607 53"/></clipPath><clipPath id="cL"><path d="M 542.519531 53.585938 L 647.253906 10.941406 L 678.320312 87.238281 L 573.585938 129.882812 Z M 542.519531 53.585938"/></clipPath><clipPath id="cM"><path d="M 542.519531 53.585938 L 647.253906 10.941406 L 678.320312 87.238281 L 573.585938 129.882812 Z M 542.519531 53.585938"/></clipPath><clipPath id="cN"><path d="M 605 50 L 613 50 L 613 58 L 605 58 Z M 605 50"/></clipPath><clipPath id="cO"><path d="M 542.519531 53.585938 L 647.253906 10.941406 L 678.320312 87.238281 L 573.585938 129.882812 Z M 542.519531 53.585938"/></clipPath><clipPath id="cP"><path d="M 542.519531 53.585938 L 647.253906 10.941406 L 678.320312 87.238281 L 573.585938 129.882812 Z M 542.519531 53.585938"/></clipPath><clipPath id="cQ"><path d="M 601 57 L 606 57 L 606 61 L 601 61 Z M 601 57"/></clipPath><clipPath id="cR"><path d="M 542.519531 53.585938 L 647.253906 10.941406 L 678.320312 87.238281 L 573.585938 129.882812 Z M 542.519531 53.585938"/></clipPath><clipPath id="cS"><path d="M 542.519531 53.585938 L 647.253906 10.941406 L 678.320312 87.238281 L 573.585938 129.882812 Z M 542.519531 53.585938"/></clipPath></defs><g clip-path="url(#a)"><g clip-path="url(#b)"><g clip-path="url(#c)"><path fill="#BA181B" d="M 595.566406 113.292969 C 595.113281 113.476562 594.59375 113.261719 594.410156 112.808594 C 594.222656 112.359375 594.433594 111.847656 594.882812 111.664062 L 594.898438 111.65625 C 595.351562 111.472656 595.867188 111.6875 596.050781 112.140625 C 596.234375 112.59375 596.015625 113.109375 595.566406 113.292969 Z M 595.566406 113.292969"/></g></g></g><g clip-path="url(#d)"><g clip-path="url(#e)"><g clip-path="url(#f)"><path fill="#BA181B" d="M 599.523438 92.613281 C 599.074219 92.796875 598.550781 92.582031 598.367188 92.132812 C 598.179688 91.679688 598.390625 91.167969 598.839844 90.984375 L 598.855469 90.976562 C 599.308594 90.792969 599.824219 91.011719 600.007812 91.464844 C 600.191406 91.914062 599.972656 92.429688 599.523438 92.613281 Z M 599.523438 92.613281"/></g></g></g><g clip-path="url(#g)"><g clip-path="url(#h)"><g clip-path="url(#i)"><path fill="#BA181B" d="M 598.730469 71.964844 C 598.28125 72.148438 597.757812 71.933594 597.574219 71.480469 C 597.390625 71.03125 597.597656 70.519531 598.050781 70.335938 L 598.066406 70.328125 C 598.515625 70.144531 599.03125 70.359375 599.214844 70.8125 C 599.398438 71.265625 599.183594 71.78125 598.730469 71.964844 Z M 598.730469 71.964844"/></g></g></g><g clip-path="url(#j)"><g clip-path="url(#k)"><g clip-path="url(#l)"><path fill="#BA181B" d="M 629.460938 63.265625 C 629.011719 63.449219 628.488281 63.234375 628.304688 62.78125 C 628.121094 62.328125 628.328125 61.820312 628.78125 61.636719 L 628.796875 61.628906 C 629.25 61.445312 629.761719 61.664062 629.945312 62.113281 C 630.128906 62.566406 629.914062 63.078125 629.460938 63.265625 Z M 629.460938 63.265625"/></g></g></g><g clip-path="url(#m)"><g clip-path="url(#n)"><g clip-path="url(#o)"><path fill="#BA181B" d="M 621.421875 85.605469 C 620.972656 85.789062 620.449219 85.574219 620.265625 85.121094 C 620.082031 84.671875 620.289062 84.160156 620.738281 83.976562 L 620.753906 83.96875 C 621.207031 83.785156 621.71875 84.003906 621.90625 84.453125 C 622.089844 84.90625 621.875 85.421875 621.421875 85.605469 Z M 621.421875 85.605469"/></g></g></g><g clip-path="url(#p)"><g clip-path="url(#q)"><g clip-path="url(#r)"><path fill="#BA181B" d="M 600.464844 111.296875 C 600.015625 111.480469 599.492188 111.265625 599.308594 110.816406 C 599.125 110.363281 599.332031 109.851562 599.785156 109.667969 L 599.800781 109.660156 C 600.25 109.476562 600.765625 109.695312 600.949219 110.144531 C 601.132812 110.597656 600.917969 111.113281 600.464844 111.296875 Z M 600.464844 111.296875"/></g></g></g><g clip-path="url(#s)"><g clip-path="url(#t)"><g clip-path="url(#u)"><path fill="#BA181B" d="M 605.367188 109.300781 C 604.914062 109.484375 604.390625 109.269531 604.207031 108.820312 C 604.023438 108.367188 604.230469 107.855469 604.683594 107.671875 L 604.699219 107.664062 C 605.152344 107.480469 605.664062 107.699219 605.847656 108.152344 C 606.035156 108.601562 605.816406 109.117188 605.367188 109.300781 Z M 605.367188 109.300781"/></g></g></g><g clip-path="url(#v)"><g clip-path="url(#w)"><g clip-path="url(#x)"><path fill="#BA181B" d="M 610.265625 107.304688 C 609.816406 107.488281 609.292969 107.277344 609.109375 106.824219 C 608.921875 106.371094 609.132812 105.859375 609.582031 105.675781 L 609.597656 105.671875 C 610.050781 105.488281 610.566406 105.703125 610.75 106.15625 C 610.933594 106.609375 610.714844 107.121094 610.265625 107.304688 Z M 610.265625 107.304688"/></g></g></g><g clip-path="url(#y)"><g clip-path="url(#z)"><g clip-path="url(#A)"><path fill="#BA181B" d="M 615.164062 105.3125 C 614.714844 105.496094 614.191406 105.28125 614.007812 104.828125 C 613.824219 104.378906 614.03125 103.867188 614.484375 103.683594 L 614.5 103.675781 C 614.949219 103.492188 615.464844 103.710938 615.648438 104.160156 C 615.832031 104.613281 615.617188 105.128906 615.164062 105.3125 Z M 615.164062 105.3125"/></g></g></g><g clip-path="url(#B)"><g clip-path="url(#C)"><g clip-path="url(#D)"><path fill="#BA181B" d="M 620.066406 103.316406 C 619.613281 103.5 619.089844 103.285156 618.90625 102.835938 C 618.722656 102.382812 618.933594 101.871094 619.382812 101.6875 L 619.398438 101.679688 C 619.851562 101.496094 620.363281 101.714844 620.546875 102.167969 C 620.734375 102.617188 620.515625 103.132812 620.066406 103.316406 Z M 620.066406 103.316406"/></g></g></g><g clip-path="url(#E)"><g clip-path="url(#F)"><g clip-path="url(#G)"><path fill="#BA181B" d="M 624.964844 101.320312 C 624.515625 101.503906 623.992188 101.292969 623.808594 100.839844 C 623.625 100.386719 623.832031 99.875 624.28125 99.691406 L 624.296875 99.6875 C 624.75 99.5 625.265625 99.71875 625.449219 100.171875 C 625.632812 100.625 625.417969 101.136719 624.964844 101.320312 Z M 624.964844 101.320312"/></g></g></g><g clip-path="url(#H)"><g clip-path="url(#I)"><g clip-path="url(#J)"><path fill="#BA181B" d="M 629.863281 99.328125 C 629.414062 99.507812 628.890625 99.296875 628.707031 98.84375 C 628.523438 98.390625 628.730469 97.878906 629.183594 97.699219 L 629.199219 97.691406 C 629.652344 97.507812 630.164062 97.722656 630.347656 98.175781 C 630.53125 98.628906 630.316406 99.140625 629.863281 99.328125 Z M 629.863281 99.328125"/></g></g></g><g clip-path="url(#K)"><g clip-path="url(#L)"><g clip-path="url(#M)"><path fill="#BA181B" d="M 634.765625 97.332031 C 634.3125 97.515625 633.792969 97.300781 633.609375 96.847656 C 633.425781 96.398438 633.632812 95.886719 634.082031 95.703125 L 634.097656 95.695312 C 634.550781 95.511719 635.0625 95.730469 635.246094 96.179688 C 635.429688 96.632812 635.21875 97.148438 634.765625 97.332031 Z M 634.765625 97.332031"/></g></g></g><g clip-path="url(#N)"><g clip-path="url(#O)"><g clip-path="url(#P)"><path fill="#BA181B" d="M 557.851562 88.609375 C 557.398438 88.792969 556.886719 88.574219 556.699219 88.125 C 555.414062 84.96875 556.933594 81.355469 560.085938 80.070312 C 560.539062 79.886719 561.050781 80.105469 561.234375 80.554688 C 561.421875 81.007812 561.203125 81.523438 560.753906 81.707031 C 558.5 82.625 557.417969 85.203125 558.335938 87.457031 C 558.519531 87.910156 558.300781 88.425781 557.851562 88.609375 Z M 557.851562 88.609375"/></g></g></g><g clip-path="url(#Q)"><g clip-path="url(#R)"><g clip-path="url(#S)"><path fill="#BA181B" d="M 660.746094 46.714844 C 660.292969 46.898438 659.78125 46.679688 659.597656 46.226562 C 658.679688 43.972656 656.097656 42.886719 653.847656 43.800781 C 653.398438 43.984375 652.882812 43.769531 652.699219 43.316406 C 652.515625 42.863281 652.730469 42.351562 653.183594 42.167969 C 656.335938 40.882812 659.945312 42.40625 661.230469 45.5625 C 661.414062 46.015625 661.195312 46.53125 660.746094 46.714844 Z M 660.746094 46.714844"/></g></g></g><g clip-path="url(#T)"><g clip-path="url(#U)"><g clip-path="url(#V)"><path fill="#BA181B" d="M 672.492188 89.597656 C 672.042969 89.78125 671.527344 89.5625 671.34375 89.109375 C 671.160156 88.660156 671.375 88.144531 671.828125 87.960938 C 674.078125 87.042969 675.164062 84.460938 674.246094 82.210938 C 674.0625 81.757812 674.277344 81.242188 674.730469 81.058594 C 675.179688 80.875 675.695312 81.09375 675.878906 81.542969 C 677.164062 84.699219 675.644531 88.3125 672.492188 89.597656 Z M 672.492188 89.597656"/></g></g></g><g clip-path="url(#W)"><g clip-path="url(#X)"><g clip-path="url(#Y)"><path fill="#BA181B" d="M 579.398438 127.5 C 576.246094 128.785156 572.636719 127.261719 571.351562 124.105469 C 571.167969 123.652344 571.382812 123.136719 571.835938 122.953125 C 572.285156 122.769531 572.800781 122.988281 572.984375 123.4375 C 573.902344 125.691406 576.480469 126.78125 578.730469 125.867188 C 579.183594 125.679688 579.699219 125.898438 579.882812 126.351562 C 580.066406 126.800781 579.847656 127.316406 579.398438 127.5 Z M 579.398438 127.5"/></g></g></g><g clip-path="url(#Z)"><g clip-path="url(#aa)"><g clip-path="url(#ab)"><path fill="#BA181B" d="M 570.074219 104.605469 C 569.625 104.789062 569.109375 104.570312 568.925781 104.117188 C 568.007812 101.863281 565.429688 100.777344 563.175781 101.691406 C 562.726562 101.875 562.210938 101.660156 562.027344 101.207031 C 561.84375 100.753906 562.058594 100.242188 562.511719 100.058594 C 565.664062 98.773438 569.273438 100.296875 570.558594 103.453125 C 570.742188 103.90625 570.527344 104.421875 570.074219 104.605469 Z M 570.074219 104.605469"/></g></g></g><g clip-path="url(#ac)"><g clip-path="url(#ad)"><g clip-path="url(#ae)"><path fill="#BA181B" d="M 567.171875 111.503906 C 566.722656 111.6875 566.207031 111.472656 566.023438 111.019531 C 565.839844 110.566406 566.054688 110.054688 566.507812 109.871094 C 568.757812 108.953125 569.84375 106.371094 568.925781 104.117188 C 568.742188 103.667969 568.957031 103.152344 569.410156 102.96875 C 569.859375 102.785156 570.375 103 570.558594 103.453125 C 571.84375 106.609375 570.324219 110.222656 567.171875 111.503906 Z M 567.171875 111.503906"/></g></g></g><g clip-path="url(#af)"><g clip-path="url(#ag)"><g clip-path="url(#ah)"><path fill="#BA181B" d="M 653.847656 43.800781 L 560.753906 81.707031 C 560.300781 81.890625 559.785156 81.671875 559.601562 81.222656 C 559.417969 80.769531 559.636719 80.253906 560.085938 80.070312 L 653.183594 42.167969 C 653.632812 41.984375 654.148438 42.199219 654.332031 42.652344 C 654.515625 43.105469 654.300781 43.617188 653.847656 43.800781 Z M 653.847656 43.800781"/></g></g></g><g clip-path="url(#ai)"><g clip-path="url(#aj)"><g clip-path="url(#ak)"><path fill="#BA181B" d="M 672.492188 89.597656 L 579.398438 127.5 C 578.945312 127.683594 578.433594 127.46875 578.25 127.015625 C 578.0625 126.5625 578.28125 126.050781 578.730469 125.867188 L 671.828125 87.960938 C 672.277344 87.777344 672.792969 87.992188 672.976562 88.445312 C 673.160156 88.898438 672.945312 89.414062 672.492188 89.597656 Z M 672.492188 89.597656"/></g></g></g><g clip-path="url(#al)"><g clip-path="url(#am)"><g clip-path="url(#an)"><path fill="#BA181B" d="M 563.175781 101.691406 C 562.726562 101.875 562.210938 101.660156 562.027344 101.207031 L 556.699219 88.125 C 556.515625 87.671875 556.734375 87.15625 557.183594 86.972656 C 557.636719 86.789062 558.148438 87.007812 558.335938 87.457031 L 563.660156 100.542969 C 563.84375 100.996094 563.628906 101.507812 563.175781 101.691406 Z M 563.175781 101.691406"/></g></g></g><g clip-path="url(#ao)"><g clip-path="url(#ap)"><g clip-path="url(#aq)"><path fill="#BA181B" d="M 572.5 124.589844 C 572.050781 124.773438 571.535156 124.554688 571.351562 124.105469 L 566.023438 111.019531 C 565.839844 110.566406 566.054688 110.054688 566.507812 109.871094 C 566.957031 109.6875 567.472656 109.902344 567.65625 110.355469 L 572.984375 123.4375 C 573.167969 123.890625 572.953125 124.40625 572.5 124.589844 Z M 572.5 124.589844"/></g></g></g><g clip-path="url(#ar)"><g clip-path="url(#as)"><g clip-path="url(#at)"><path fill="#BA181B" d="M 670.070312 69.609375 C 666.917969 70.890625 663.308594 69.367188 662.023438 66.214844 C 661.839844 65.761719 662.054688 65.246094 662.507812 65.0625 C 662.957031 64.878906 663.472656 65.097656 663.65625 65.546875 C 664.574219 67.800781 667.152344 68.890625 669.402344 67.972656 C 669.855469 67.789062 670.367188 68.007812 670.554688 68.457031 C 670.738281 68.910156 670.519531 69.425781 670.070312 69.609375 Z M 670.070312 69.609375"/></g></g></g><g clip-path="url(#au)"><g clip-path="url(#av)"><g clip-path="url(#aw)"><path fill="#BA181B" d="M 663.171875 66.699219 C 662.722656 66.882812 662.207031 66.664062 662.023438 66.214844 C 660.738281 63.058594 662.257812 59.445312 665.410156 58.160156 C 665.859375 57.976562 666.375 58.195312 666.558594 58.648438 C 666.742188 59.097656 666.527344 59.613281 666.074219 59.796875 C 663.824219 60.714844 662.738281 63.292969 663.65625 65.546875 C 663.839844 66 663.625 66.515625 663.171875 66.699219 Z M 663.171875 66.699219"/></g></g></g><g clip-path="url(#ax)"><g clip-path="url(#ay)"><g clip-path="url(#az)"><path fill="#BA181B" d="M 675.398438 82.695312 C 674.945312 82.878906 674.433594 82.660156 674.246094 82.207031 L 668.917969 69.121094 C 668.734375 68.671875 668.953125 68.15625 669.402344 67.972656 C 669.855469 67.789062 670.367188 68.007812 670.554688 68.457031 L 675.882812 81.542969 C 676.066406 81.996094 675.847656 82.511719 675.398438 82.695312 Z M 675.398438 82.695312"/></g></g></g><g clip-path="url(#aA)"><g clip-path="url(#aB)"><g clip-path="url(#aC)"><path fill="#BA181B" d="M 666.074219 59.796875 C 665.625 59.980469 665.109375 59.761719 664.925781 59.3125 L 659.597656 46.226562 C 659.414062 45.777344 659.628906 45.261719 660.082031 45.078125 C 660.53125 44.894531 661.046875 45.109375 661.230469 45.5625 L 666.558594 58.648438 C 666.742188 59.097656 666.527344 59.613281 666.074219 59.796875 Z M 666.074219 59.796875"/></g></g></g><g clip-path="url(#aD)"><g clip-path="url(#aE)"><g clip-path="url(#aF)"><path fill="#BA181B" d="M 639.847656 56.175781 C 639.394531 56.359375 638.882812 56.140625 638.699219 55.691406 L 637.699219 53.238281 C 637.515625 52.785156 637.730469 52.269531 638.183594 52.085938 C 638.632812 51.902344 639.148438 52.121094 639.332031 52.570312 L 640.332031 55.023438 C 640.515625 55.476562 640.300781 55.992188 639.847656 56.175781 Z M 639.847656 56.175781"/></g></g></g><g clip-path="url(#aG)"><g clip-path="url(#aH)"><g clip-path="url(#aI)"><path fill="#BA181B" d="M 651.835938 85.613281 C 651.382812 85.796875 650.867188 85.582031 650.683594 85.128906 L 648.6875 80.222656 C 648.503906 79.769531 648.71875 79.257812 649.171875 79.074219 C 649.621094 78.890625 650.136719 79.105469 650.320312 79.558594 L 652.316406 84.464844 C 652.5 84.917969 652.285156 85.429688 651.835938 85.613281 Z M 647.839844 75.800781 C 647.386719 75.984375 646.871094 75.769531 646.6875 75.316406 L 644.691406 70.410156 C 644.507812 69.957031 644.722656 69.445312 645.175781 69.257812 C 645.625 69.074219 646.140625 69.292969 646.324219 69.746094 L 648.320312 74.652344 C 648.507812 75.101562 648.289062 75.617188 647.839844 75.800781 Z M 643.84375 65.988281 C 643.390625 66.171875 642.878906 65.957031 642.695312 65.503906 L 640.695312 60.597656 C 640.511719 60.144531 640.726562 59.628906 641.179688 59.445312 C 641.628906 59.261719 642.144531 59.480469 642.328125 59.933594 L 644.328125 64.839844 C 644.511719 65.289062 644.292969 65.804688 643.84375 65.988281 Z M 643.84375 65.988281"/></g></g></g><g clip-path="url(#aJ)"><g clip-path="url(#aK)"><g clip-path="url(#aL)"><path fill="#BA181B" d="M 654.832031 92.972656 C 654.378906 93.160156 653.863281 92.941406 653.679688 92.488281 L 652.683594 90.035156 C 652.5 89.582031 652.714844 89.070312 653.164062 88.886719 C 653.617188 88.703125 654.132812 88.917969 654.316406 89.371094 L 655.3125 91.824219 C 655.5 92.277344 655.28125 92.789062 654.832031 92.972656 Z M 654.832031 92.972656"/></g></g></g><g clip-path="url(#aM)"><g clip-path="url(#aN)"><g clip-path="url(#aO)"><path fill="#BA181B" d="M 660.699219 88.679688 C 660.246094 88.863281 659.730469 88.644531 659.546875 88.195312 L 644.898438 52.210938 C 644.714844 51.761719 644.929688 51.246094 645.382812 51.0625 C 645.832031 50.878906 646.347656 51.09375 646.53125 51.546875 L 661.179688 87.527344 C 661.367188 87.980469 661.148438 88.496094 660.699219 88.679688 Z M 660.699219 88.679688"/></g></g></g><g clip-path="url(#aP)"><g clip-path="url(#aQ)"><g clip-path="url(#aR)"><path fill="#BA181B" d="M 660.636719 79.171875 C 660.183594 79.355469 659.667969 79.136719 659.484375 78.6875 L 651.496094 59.058594 C 651.308594 58.609375 651.527344 58.09375 651.976562 57.910156 C 652.429688 57.726562 652.945312 57.941406 653.128906 58.394531 L 661.117188 78.019531 C 661.300781 78.472656 661.085938 78.988281 660.636719 79.171875 Z M 660.636719 79.171875"/></g></g></g><g clip-path="url(#aS)"><g clip-path="url(#aT)"><g clip-path="url(#aU)"><path fill="#BA181B" d="M 586.710938 94.019531 C 586.257812 94.203125 585.742188 93.984375 585.558594 93.53125 L 581.566406 83.71875 C 581.378906 83.265625 581.597656 82.753906 582.046875 82.570312 C 582.5 82.386719 583.015625 82.601562 583.199219 83.054688 L 587.191406 92.867188 C 587.378906 93.320312 587.160156 93.832031 586.710938 94.019531 Z M 586.710938 94.019531"/></g></g></g><g clip-path="url(#aV)"><g clip-path="url(#aW)"><g clip-path="url(#aX)"><path fill="#BA181B" d="M 585.980469 82.875 L 579.449219 85.535156 C 578.996094 85.71875 578.480469 85.5 578.296875 85.050781 C 578.113281 84.597656 578.332031 84.082031 578.78125 83.898438 L 585.316406 81.238281 C 585.765625 81.054688 586.28125 81.273438 586.464844 81.722656 C 586.648438 82.175781 586.433594 82.691406 585.980469 82.875 Z M 585.980469 82.875"/></g></g></g><g clip-path="url(#aY)"><g clip-path="url(#aZ)"><g clip-path="url(#ba)"><path fill="#BA181B" d="M 626.726562 77.726562 C 626.273438 77.910156 625.757812 77.691406 625.574219 77.238281 L 621.578125 67.425781 C 621.394531 66.976562 621.613281 66.460938 622.0625 66.277344 C 622.515625 66.09375 623.027344 66.308594 623.214844 66.761719 L 627.207031 76.574219 C 627.394531 77.027344 627.175781 77.542969 626.726562 77.726562 Z M 626.726562 77.726562"/></g></g></g><g clip-path="url(#bb)"><g clip-path="url(#bc)"><g clip-path="url(#bd)"><path fill="#BA181B" d="M 625.996094 66.582031 L 619.464844 69.242188 C 619.011719 69.425781 618.496094 69.207031 618.3125 68.757812 C 618.128906 68.304688 618.347656 67.789062 618.796875 67.605469 L 625.332031 64.945312 C 625.78125 64.761719 626.296875 64.980469 626.480469 65.433594 C 626.664062 65.882812 626.449219 66.398438 625.996094 66.582031 Z M 625.996094 66.582031"/></g></g></g><g clip-path="url(#be)"><g clip-path="url(#bf)"><g clip-path="url(#bg)"><path fill="#BA181B" d="M 593.242188 91.359375 C 592.792969 91.542969 592.277344 91.324219 592.09375 90.871094 L 588.097656 81.058594 C 587.914062 80.609375 588.128906 80.09375 588.582031 79.910156 C 589.03125 79.726562 589.546875 79.941406 589.730469 80.394531 L 593.726562 90.207031 C 593.910156 90.660156 593.695312 91.175781 593.242188 91.359375 Z M 593.242188 91.359375"/></g></g></g><g clip-path="url(#bh)"><g clip-path="url(#bi)"><g clip-path="url(#bj)"><path fill="#BA181B" d="M 607.125 85.707031 C 606.675781 85.890625 606.160156 85.671875 605.976562 85.21875 L 601.980469 75.40625 C 601.796875 74.953125 602.011719 74.441406 602.464844 74.257812 C 602.914062 74.074219 603.429688 74.289062 603.613281 74.742188 L 607.609375 84.554688 C 607.792969 85.007812 607.578125 85.519531 607.125 85.707031 Z M 607.125 85.707031"/></g></g></g><g clip-path="url(#bk)"><g clip-path="url(#bl)"><g clip-path="url(#bm)"><path fill="#BA181B" d="M 605.792969 82.433594 C 605.621094 82.503906 605.429688 82.519531 605.238281 82.46875 C 604.765625 82.347656 604.484375 81.863281 604.609375 81.390625 L 606.84375 72.855469 C 606.96875 72.382812 607.453125 72.101562 607.921875 72.226562 C 608.390625 72.347656 608.675781 72.832031 608.550781 73.304688 L 606.3125 81.839844 C 606.242188 82.121094 606.042969 82.332031 605.792969 82.433594 Z M 605.792969 82.433594"/></g></g></g><g clip-path="url(#bn)"><g clip-path="url(#bo)"><g clip-path="url(#bp)"><path fill="#BA181B" d="M 612.027344 83.710938 C 611.75 83.824219 611.421875 83.789062 611.164062 83.597656 L 605.675781 79.476562 C 605.285156 79.183594 605.207031 78.628906 605.5 78.238281 C 605.792969 77.851562 606.34375 77.769531 606.734375 78.0625 L 612.222656 82.1875 C 612.609375 82.480469 612.691406 83.03125 612.398438 83.421875 C 612.296875 83.554688 612.167969 83.652344 612.027344 83.710938 Z M 612.027344 83.710938"/></g></g></g><g clip-path="url(#bq)"><g clip-path="url(#br)"><g clip-path="url(#bs)"><path fill="#BA181B" d="M 600.046875 80.007812 C 599.59375 80.191406 599.082031 79.976562 598.894531 79.523438 C 598.527344 78.621094 597.496094 78.1875 596.597656 78.550781 C 595.695312 78.917969 595.261719 79.949219 595.628906 80.851562 C 595.8125 81.304688 595.597656 81.820312 595.144531 82.003906 C 594.695312 82.1875 594.179688 81.96875 593.996094 81.519531 C 593.261719 79.714844 594.128906 77.648438 595.929688 76.917969 C 597.734375 76.183594 599.796875 77.054688 600.53125 78.859375 C 600.714844 79.308594 600.496094 79.824219 600.046875 80.007812 Z M 600.046875 80.007812"/></g></g></g><g clip-path="url(#bt)"><g clip-path="url(#bu)"><g clip-path="url(#bv)"><path fill="#BA181B" d="M 600.59375 88.363281 C 598.792969 89.097656 596.726562 88.226562 595.992188 86.425781 C 595.808594 85.972656 596.027344 85.457031 596.476562 85.273438 C 596.929688 85.089844 597.445312 85.308594 597.628906 85.757812 C 597.996094 86.660156 599.027344 87.097656 599.925781 86.730469 C 600.828125 86.363281 601.261719 85.328125 600.894531 84.429688 C 600.710938 83.976562 600.925781 83.460938 601.378906 83.277344 C 601.828125 83.09375 602.34375 83.3125 602.527344 83.765625 C 603.261719 85.566406 602.394531 87.632812 600.59375 88.363281 Z M 600.59375 88.363281"/></g></g></g><g clip-path="url(#bw)"><g clip-path="url(#bx)"><g clip-path="url(#by)"><path fill="#BA181B" d="M 597.144531 86.910156 C 596.691406 87.09375 596.179688 86.875 595.992188 86.425781 L 593.996094 81.519531 C 593.8125 81.066406 594.027344 80.550781 594.480469 80.367188 C 594.929688 80.183594 595.445312 80.402344 595.628906 80.851562 L 597.628906 85.757812 C 597.8125 86.210938 597.59375 86.726562 597.144531 86.910156 Z M 597.144531 86.910156"/></g></g></g><g clip-path="url(#bz)"><g clip-path="url(#bA)"><g clip-path="url(#bB)"><path fill="#BA181B" d="M 616.109375 82.046875 C 615.65625 82.230469 615.144531 82.015625 614.960938 81.5625 L 610.964844 71.75 C 610.78125 71.296875 610.996094 70.78125 611.449219 70.597656 C 611.898438 70.414062 612.414062 70.632812 612.597656 71.085938 L 616.59375 80.898438 C 616.777344 81.347656 616.558594 81.863281 616.109375 82.046875 Z M 616.109375 82.046875"/></g></g></g><g clip-path="url(#bC)"><g clip-path="url(#bD)"><g clip-path="url(#bE)"><path fill="#BA181B" d="M 621.007812 80.050781 L 616.109375 82.046875 C 615.65625 82.230469 615.144531 82.015625 614.960938 81.5625 C 614.773438 81.109375 614.992188 80.597656 615.441406 80.410156 L 620.34375 78.417969 C 620.792969 78.234375 621.308594 78.449219 621.492188 78.902344 C 621.675781 79.355469 621.460938 79.867188 621.007812 80.050781 Z M 621.007812 80.050781"/></g></g></g><g clip-path="url(#bF)"><g clip-path="url(#bG)"><g clip-path="url(#bH)"><path fill="#BA181B" d="M 617.011719 70.238281 L 612.113281 72.234375 C 611.660156 72.417969 611.148438 72.203125 610.964844 71.75 C 610.78125 71.296875 610.996094 70.78125 611.449219 70.597656 L 616.347656 68.605469 C 616.796875 68.421875 617.3125 68.636719 617.496094 69.089844 C 617.679688 69.542969 617.464844 70.054688 617.011719 70.238281 Z M 617.011719 70.238281"/></g></g></g><g clip-path="url(#bI)"><g clip-path="url(#bJ)"><g clip-path="url(#bK)"><path fill="#BA181B" d="M 617.378906 75.8125 L 614.109375 77.140625 C 613.660156 77.324219 613.144531 77.109375 612.960938 76.65625 C 612.777344 76.203125 612.992188 75.6875 613.445312 75.503906 L 616.710938 74.175781 C 617.164062 73.992188 617.675781 74.207031 617.859375 74.660156 C 618.046875 75.113281 617.828125 75.628906 617.378906 75.8125 Z M 617.378906 75.8125"/></g></g></g><g clip-path="url(#bL)"><g clip-path="url(#bM)"><g clip-path="url(#bN)"><path fill="#BA181B" d="M 631.539062 87.207031 L 590.707031 103.832031 C 590.253906 104.015625 589.738281 103.796875 589.554688 103.34375 C 589.371094 102.894531 589.585938 102.378906 590.039062 102.195312 L 630.871094 85.570312 C 631.324219 85.386719 631.835938 85.601562 632.019531 86.054688 C 632.203125 86.507812 631.988281 87.023438 631.539062 87.207031 Z M 631.539062 87.207031"/></g></g></g><g clip-path="url(#bO)"><g clip-path="url(#bP)"><g clip-path="url(#bQ)"><path fill="#BA181B" d="M 621.4375 95.132812 L 603.46875 102.445312 C 603.019531 102.628906 602.503906 102.414062 602.320312 101.960938 C 602.136719 101.507812 602.351562 100.996094 602.804688 100.8125 L 620.769531 93.496094 C 621.222656 93.3125 621.734375 93.53125 621.917969 93.980469 C 622.105469 94.433594 621.886719 94.949219 621.4375 95.132812 Z M 621.4375 95.132812"/></g></g></g><g clip-path="url(#bR)"><g clip-path="url(#bS)"><g clip-path="url(#bT)"><path fill="#BA181B" d="M 634.742188 76.367188 C 634.289062 76.550781 633.773438 76.335938 633.589844 75.882812 L 632.257812 72.613281 C 632.074219 72.160156 632.292969 71.644531 632.742188 71.460938 C 633.195312 71.277344 633.707031 71.496094 633.894531 71.945312 L 635.222656 75.21875 C 635.410156 75.667969 635.191406 76.183594 634.742188 76.367188 Z M 634.742188 76.367188"/></g></g></g><g clip-path="url(#bU)"><g clip-path="url(#bV)"><g clip-path="url(#bW)"><path fill="#BA181B" d="M 635.707031 74.066406 L 632.441406 75.398438 C 631.988281 75.582031 631.476562 75.363281 631.292969 74.914062 C 631.109375 74.460938 631.324219 73.945312 631.777344 73.761719 L 635.042969 72.433594 C 635.492188 72.25 636.007812 72.464844 636.191406 72.917969 C 636.375 73.371094 636.160156 73.882812 635.707031 74.066406 Z M 635.707031 74.066406"/></g></g></g><g clip-path="url(#bX)"><g clip-path="url(#bY)"><g clip-path="url(#bZ)"><path fill="#BA181B" d="M 574.246094 91.464844 C 573.792969 91.648438 573.28125 91.433594 573.097656 90.980469 L 571.765625 87.710938 C 571.582031 87.257812 571.796875 86.742188 572.25 86.558594 C 572.699219 86.375 573.214844 86.59375 573.398438 87.042969 L 574.730469 90.316406 C 574.914062 90.765625 574.699219 91.28125 574.246094 91.464844 Z M 574.246094 91.464844"/></g></g></g><g clip-path="url(#ca)"><g clip-path="url(#cb)"><g clip-path="url(#cc)"><path fill="#BA181B" d="M 575.214844 89.164062 L 571.945312 90.496094 C 571.496094 90.679688 570.980469 90.460938 570.796875 90.011719 C 570.613281 89.558594 570.828125 89.042969 571.28125 88.859375 L 574.546875 87.53125 C 575 87.347656 575.511719 87.5625 575.699219 88.015625 C 575.882812 88.46875 575.664062 88.980469 575.214844 89.164062 Z M 575.214844 89.164062"/></g></g></g><g clip-path="url(#cd)"><g clip-path="url(#ce)"><g clip-path="url(#cf)"><path fill="#BA181B" d="M 613.75 48.273438 C 613.296875 48.457031 612.777344 48.242188 612.59375 47.792969 C 612.410156 47.339844 612.617188 46.828125 613.066406 46.644531 L 613.082031 46.636719 C 613.535156 46.453125 614.046875 46.671875 614.230469 47.125 C 614.414062 47.574219 614.203125 48.089844 613.75 48.273438 Z M 613.75 48.273438"/></g></g></g><g clip-path="url(#cg)"><g clip-path="url(#ch)"><g clip-path="url(#ci)"><path fill="#BA181B" d="M 636.992188 21.566406 C 636.664062 21.699219 636.273438 21.625 636.015625 21.351562 C 634.351562 19.578125 631.558594 19.484375 629.78125 21.152344 C 629.429688 21.484375 628.871094 21.46875 628.535156 21.113281 C 628.203125 20.753906 628.222656 20.195312 628.578125 19.863281 C 631.058594 17.53125 634.972656 17.660156 637.304688 20.144531 C 637.636719 20.5 637.617188 21.058594 637.261719 21.394531 C 637.183594 21.46875 637.089844 21.527344 636.992188 21.566406 Z M 636.992188 21.566406"/></g></g></g><g clip-path="url(#cj)"><g clip-path="url(#ck)"><g clip-path="url(#cl)"><path fill="#BA181B" d="M 575.839844 71.75 C 575.511719 71.882812 575.121094 71.8125 574.863281 71.539062 C 574.53125 71.183594 574.546875 70.621094 574.902344 70.289062 L 628.574219 19.863281 C 628.929688 19.53125 629.488281 19.546875 629.820312 19.902344 C 630.15625 20.257812 630.136719 20.816406 629.785156 21.148438 L 576.109375 71.578125 C 576.03125 71.652344 575.9375 71.710938 575.839844 71.75 Z M 575.839844 71.75"/></g></g></g><g clip-path="url(#cm)"><g clip-path="url(#cn)"><g clip-path="url(#co)"><path fill="#BA181B" d="M 652.28125 40.632812 C 649.984375 41.570312 647.242188 41.054688 645.445312 39.140625 C 645.113281 38.785156 645.128906 38.226562 645.484375 37.890625 C 645.835938 37.5625 646.398438 37.574219 646.730469 37.933594 C 648.394531 39.707031 651.1875 39.792969 652.964844 38.128906 C 653.316406 37.800781 653.875 37.816406 654.210938 38.171875 C 654.542969 38.527344 654.527344 39.085938 654.171875 39.421875 C 653.605469 39.953125 652.960938 40.355469 652.28125 40.632812 Z M 652.28125 40.632812"/></g></g></g><g clip-path="url(#cp)"><g clip-path="url(#cq)"><g clip-path="url(#cr)"><path fill="#BA181B" d="M 646.421875 39.355469 C 646.09375 39.488281 645.703125 39.414062 645.445312 39.140625 C 643.113281 36.652344 643.238281 32.734375 645.71875 30.40625 C 646.070312 30.074219 646.628906 30.089844 646.964844 30.445312 C 647.300781 30.800781 647.28125 31.359375 646.925781 31.691406 C 645.152344 33.355469 645.066406 36.15625 646.730469 37.933594 C 647.066406 38.289062 647.046875 38.847656 646.691406 39.179688 C 646.609375 39.257812 646.519531 39.3125 646.421875 39.355469 Z M 646.421875 39.355469"/></g></g></g><g clip-path="url(#cs)"><g clip-path="url(#ct)"><g clip-path="url(#cu)"><path fill="#BA181B" d="M 646.65625 31.867188 C 646.328125 32 645.9375 31.925781 645.679688 31.652344 L 636.019531 21.351562 C 635.683594 20.996094 635.703125 20.4375 636.054688 20.101562 C 636.410156 19.773438 636.96875 19.785156 637.304688 20.140625 L 646.964844 30.445312 C 647.300781 30.800781 647.28125 31.359375 646.925781 31.691406 C 646.84375 31.769531 646.753906 31.828125 646.65625 31.867188 Z M 646.65625 31.867188"/></g></g></g><g clip-path="url(#cv)"><g clip-path="url(#cw)"><g clip-path="url(#cx)"><path fill="#BA181B" d="M 620.886719 37.910156 C 620.558594 38.042969 620.167969 37.96875 619.910156 37.695312 L 618.097656 35.761719 C 617.765625 35.40625 617.78125 34.847656 618.136719 34.515625 C 618.492188 34.179688 619.050781 34.199219 619.382812 34.554688 L 621.195312 36.484375 C 621.53125 36.839844 621.511719 37.402344 621.15625 37.734375 C 621.074219 37.808594 620.984375 37.867188 620.886719 37.910156 Z M 620.886719 37.910156"/></g></g></g><g clip-path="url(#cy)"><g clip-path="url(#cz)"><g clip-path="url(#cA)"><path fill="#BA181B" d="M 626.695312 44.101562 C 626.367188 44.234375 625.976562 44.160156 625.71875 43.886719 L 622.8125 40.789062 C 622.480469 40.4375 622.496094 39.875 622.851562 39.542969 C 623.207031 39.207031 623.765625 39.226562 624.097656 39.582031 L 627.003906 42.679688 C 627.339844 43.035156 627.320312 43.59375 626.964844 43.925781 C 626.882812 44.003906 626.792969 44.0625 626.695312 44.101562 Z M 626.695312 44.101562"/></g></g></g><g clip-path="url(#cB)"><g clip-path="url(#cC)"><g clip-path="url(#cD)"><path fill="#BA181B" d="M 631.410156 49.128906 C 631.082031 49.261719 630.691406 49.1875 630.433594 48.914062 L 628.621094 46.984375 C 628.289062 46.628906 628.304688 46.070312 628.660156 45.734375 C 629.015625 45.402344 629.574219 45.417969 629.910156 45.773438 L 631.71875 47.707031 C 632.050781 48.0625 632.035156 48.621094 631.679688 48.953125 C 631.597656 49.03125 631.507812 49.089844 631.410156 49.128906 Z M 631.410156 49.128906"/></g></g></g><g clip-path="url(#cE)"><g clip-path="url(#cF)"><g clip-path="url(#cG)"><path fill="#BA181B" d="M 638.402344 46.273438 C 638.074219 46.40625 637.683594 46.335938 637.429688 46.058594 L 624.449219 32.21875 C 624.113281 31.867188 624.132812 31.304688 624.488281 30.972656 C 624.839844 30.640625 625.398438 30.65625 625.734375 31.011719 L 638.714844 44.851562 C 639.046875 45.207031 639.03125 45.765625 638.675781 46.097656 C 638.59375 46.175781 638.5 46.234375 638.402344 46.273438 Z M 638.402344 46.273438"/></g></g></g><g clip-path="url(#cH)"><g clip-path="url(#cI)"><g clip-path="url(#cJ)"><path fill="#BA181B" d="M 641.90625 44.851562 C 641.578125 44.984375 641.1875 44.910156 640.933594 44.636719 L 633.058594 36.242188 C 632.726562 35.886719 632.742188 35.328125 633.097656 34.996094 C 633.453125 34.664062 634.007812 34.679688 634.34375 35.035156 L 642.21875 43.429688 C 642.550781 43.785156 642.535156 44.34375 642.179688 44.675781 C 642.097656 44.753906 642.003906 44.8125 641.90625 44.851562 Z M 641.90625 44.851562"/></g></g></g><g clip-path="url(#cK)"><g clip-path="url(#cL)"><g clip-path="url(#cM)"><path fill="#BA181B" d="M 611.277344 57.3125 C 610.949219 57.445312 610.558594 57.375 610.300781 57.097656 L 608.148438 54.800781 C 607.8125 54.445312 607.832031 53.886719 608.183594 53.554688 C 608.539062 53.222656 609.097656 53.238281 609.433594 53.59375 L 611.585938 55.890625 C 611.921875 56.246094 611.902344 56.804688 611.550781 57.140625 C 611.46875 57.214844 611.375 57.273438 611.277344 57.3125 Z M 611.277344 57.3125"/></g></g></g><g clip-path="url(#cN)"><g clip-path="url(#cO)"><g clip-path="url(#cP)"><path fill="#BA181B" d="M 606.554688 57.433594 C 606.226562 57.566406 605.835938 57.492188 605.578125 57.21875 C 605.242188 56.863281 605.261719 56.304688 605.617188 55.96875 L 610.757812 51.140625 C 611.113281 50.804688 611.671875 50.824219 612.003906 51.179688 C 612.339844 51.535156 612.320312 52.09375 611.964844 52.429688 L 606.824219 57.257812 C 606.742188 57.335938 606.648438 57.390625 606.554688 57.433594 Z M 606.554688 57.433594"/></g></g></g><g clip-path="url(#cQ)"><g clip-path="url(#cR)"><g clip-path="url(#cS)"><path fill="#BA181B" d="M 603.144531 60.632812 C 602.816406 60.765625 602.425781 60.695312 602.167969 60.417969 C 601.832031 60.0625 601.851562 59.503906 602.207031 59.171875 L 603.6875 57.78125 C 604.042969 57.449219 604.601562 57.464844 604.933594 57.820312 C 605.269531 58.175781 605.25 58.734375 604.894531 59.070312 L 603.414062 60.460938 C 603.332031 60.535156 603.242188 60.59375 603.144531 60.632812 Z M 603.144531 60.632812"/></g></g></g><g fill="#C78F03"><g><g><path d="M 10.359375 0 L 2.921875 -90.03125 L 15.1875 -90.03125 L 17.671875 -52.5625 L 19.703125 -10.796875 L 22.28125 -10.796875 L 23.640625 -52.5625 L 29.484375 -89.46875 L 46.03125 -89.46875 L 51.890625 -52.5625 L 53.234375 -10.796875 L 55.703125 -10.796875 L 57.84375 -52.5625 L 60.328125 -90.03125 L 72.59375 -90.03125 L 65.171875 0 L 44.6875 0 L 41.3125 -27.34375 L 38.9375 -79.125 L 36.578125 -79.125 L 34.21875 -27.34375 L 30.84375 0 Z M 10.359375 0" transform="translate(67.761 127.053)"/></g></g></g><g fill="#C78F03"><g><g><path d="M 2.59375 0 L 13.625 -90.03125 L 33.875 -90.03125 L 44.90625 0 L 32.53125 0 L 30.390625 -22.515625 L 17.21875 -22.515625 L 15.078125 0 Z M 18.34375 -33.203125 L 29.15625 -33.203125 L 27.234375 -53.015625 L 25.328125 -79.234375 L 22.171875 -79.234375 L 20.265625 -53.015625 Z M 18.34375 -33.203125" transform="translate(148.904 127.053)"/></g></g></g><g fill="#C78F03"><g><g><path d="M 15.640625 0 L 15.640625 -79.234375 L 2.59375 -79.234375 L 2.59375 -90.03125 L 40.734375 -90.03125 L 40.734375 -79.234375 L 27.796875 -79.234375 L 27.796875 0 Z M 15.640625 0" transform="translate(201.798 127.053)"/></g></g></g><g fill="#C78F03"><g><g><path d="M 24.53125 1.015625 C 17.707031 1.015625 12.847656 -0.425781 9.953125 -3.3125 C 7.066406 -6.207031 5.550781 -10.992188 5.40625 -17.671875 C 5.332031 -23.296875 5.273438 -29.257812 5.234375 -35.5625 C 5.191406 -41.863281 5.191406 -48.164062 5.234375 -54.46875 C 5.273438 -60.769531 5.332031 -66.738281 5.40625 -72.375 C 5.476562 -78.21875 7.015625 -82.769531 10.015625 -86.03125 C 13.015625 -89.300781 17.851562 -90.9375 24.53125 -90.9375 C 31.132812 -90.9375 35.914062 -89.488281 38.875 -86.59375 C 41.84375 -83.707031 43.40625 -78.96875 43.5625 -72.375 C 43.632812 -70.34375 43.671875 -67.863281 43.671875 -64.9375 C 43.671875 -62.007812 43.632812 -59.535156 43.5625 -57.515625 L 31.40625 -57.515625 C 31.40625 -59.984375 31.421875 -62.789062 31.453125 -65.9375 C 31.492188 -69.09375 31.476562 -71.945312 31.40625 -74.5 C 31.320312 -78.78125 29.03125 -80.921875 24.53125 -80.921875 C 20.03125 -80.921875 17.707031 -78.78125 17.5625 -74.5 C 17.332031 -64.976562 17.21875 -55.148438 17.21875 -45.015625 C 17.21875 -34.890625 17.332031 -25.0625 17.5625 -15.53125 C 17.707031 -11.175781 20.03125 -9 24.53125 -9 C 29.332031 -9 31.769531 -11.175781 31.84375 -15.53125 C 31.925781 -18.15625 31.96875 -21.097656 31.96875 -24.359375 C 31.96875 -27.628906 31.925781 -30.539062 31.84375 -33.09375 L 44 -33.09375 C 44.082031 -30.613281 44.125 -28.0625 44.125 -25.4375 C 44.125 -22.8125 44.082031 -20.222656 44 -17.671875 C 43.851562 -10.992188 42.257812 -6.207031 39.21875 -3.3125 C 36.1875 -0.425781 31.289062 1.015625 24.53125 1.015625 Z M 24.53125 1.015625" transform="translate(250.867 127.053)"/></g></g></g><g fill="#C78F03"><g><g><path d="M 5.171875 0 L 5.171875 -90.03125 L 17.4375 -90.03125 L 17.4375 -50.984375 L 30.5 -50.984375 L 30.5 -90.03125 L 42.65625 -90.03125 L 42.65625 0 L 30.5 0 L 30.5 -40.171875 L 17.4375 -40.171875 L 17.4375 0 Z M 5.171875 0" transform="translate(304.1 127.053)"/></g></g></g><g fill="#C78F03"><g><g><path d="M 5.171875 0 L 5.171875 -90.03125 L 17.4375 -90.03125 L 17.4375 -10.796875 L 37.484375 -10.796875 L 37.484375 0 Z M 5.171875 0" transform="translate(357.67 127.053)"/></g></g></g><g fill="#C78F03"><g><g><path d="M 5.171875 0 L 5.171875 -90.03125 L 17.4375 -90.03125 L 17.4375 0 Z M 5.171875 0" transform="translate(403.474 127.053)"/></g></g></g><g fill="#C78F03"><g><g><path d="M 24.765625 0.90625 C 18.003906 0.90625 13.195312 -0.535156 10.34375 -3.421875 C 7.5 -6.316406 5.925781 -11.101562 5.625 -17.78125 C 5.550781 -20.40625 5.53125 -22.957031 5.5625 -25.4375 C 5.601562 -27.914062 5.738281 -30.503906 5.96875 -33.203125 L 17.4375 -33.203125 C 17.289062 -30.128906 17.195312 -27.085938 17.15625 -24.078125 C 17.125 -21.078125 17.21875 -18.265625 17.4375 -15.640625 C 17.59375 -13.390625 18.25 -11.738281 19.40625 -10.6875 C 20.570312 -9.632812 22.359375 -9.109375 24.765625 -9.109375 C 27.085938 -9.109375 28.789062 -9.632812 29.875 -10.6875 C 30.96875 -11.738281 31.585938 -13.390625 31.734375 -15.640625 C 31.960938 -18.191406 32.054688 -20.5 32.015625 -22.5625 C 31.984375 -24.625 31.890625 -27.046875 31.734375 -29.828125 C 31.585938 -32.003906 31.140625 -33.878906 30.390625 -35.453125 C 29.640625 -37.023438 28.289062 -38.078125 26.34375 -38.609375 L 18.796875 -40.515625 C 13.691406 -41.796875 10.203125 -44.007812 8.328125 -47.15625 C 6.453125 -50.3125 5.441406 -54.585938 5.296875 -59.984375 C 5.296875 -62.015625 5.296875 -64.078125 5.296875 -66.171875 C 5.296875 -68.273438 5.332031 -70.34375 5.40625 -72.375 C 5.625 -79.050781 7.175781 -83.8125 10.0625 -86.65625 C 12.957031 -89.507812 17.859375 -90.9375 24.765625 -90.9375 C 31.210938 -90.9375 35.898438 -89.507812 38.828125 -86.65625 C 41.753906 -83.8125 43.332031 -79.050781 43.5625 -72.375 C 43.632812 -70.488281 43.648438 -68.210938 43.609375 -65.546875 C 43.578125 -62.890625 43.519531 -60.210938 43.4375 -57.515625 L 31.734375 -57.515625 C 31.804688 -60.359375 31.863281 -63.1875 31.90625 -66 C 31.945312 -68.820312 31.890625 -71.65625 31.734375 -74.5 C 31.585938 -78.78125 29.222656 -80.921875 24.640625 -80.921875 C 22.316406 -80.921875 20.59375 -80.394531 19.46875 -79.34375 C 18.34375 -78.289062 17.707031 -76.675781 17.5625 -74.5 C 17.332031 -72.101562 17.234375 -69.6875 17.265625 -67.25 C 17.304688 -64.8125 17.40625 -62.390625 17.5625 -59.984375 C 17.707031 -57.515625 18.171875 -55.566406 18.953125 -54.140625 C 19.742188 -52.710938 21.191406 -51.734375 23.296875 -51.203125 L 30.046875 -49.640625 C 35.378906 -48.359375 38.984375 -46.082031 40.859375 -42.8125 C 42.734375 -39.550781 43.78125 -35.222656 44 -29.828125 C 44.082031 -27.421875 44.101562 -25.351562 44.0625 -23.625 C 44.019531 -21.90625 43.960938 -19.957031 43.890625 -17.78125 C 43.671875 -11.101562 42.097656 -6.316406 39.171875 -3.421875 C 36.242188 -0.535156 31.441406 0.90625 24.765625 0.90625 Z M 24.765625 0.90625" transform="translate(431.835 127.053)"/></g></g></g></svg>